<mxfile host="drawio-plugin" modified="2022-11-19T06:22:43.183Z" agent="5.0 (Macintosh; Intel Mac OS X 10_15_7) AppleWebKit/537.36 (KHTML, like Gecko) Chrome/98.0.4758.102 Safari/537.36" etag="bqouO2EBgtjMSXRRFe9L" version="20.5.3" type="embed" pages="2"><diagram id="C5RBs43oDa-KdzZeNtuy" name="Model"><mxGraphModel dx="903" dy="784" grid="1" gridSize="10" guides="1" tooltips="1" connect="1" arrows="1" fold="1" page="1" pageScale="1" pageWidth="827" pageHeight="1169" math="0" shadow="0"><root><mxCell id="WIyWlLk6GJQsqaUBKTNV-0"/><mxCell id="WIyWlLk6GJQsqaUBKTNV-1" parent="WIyWlLk6GJQsqaUBKTNV-0"/><mxCell id="CvsPyBY_gTNWmde9INsc-14" value="Character" style="swimlane;fontStyle=1;align=center;verticalAlign=top;childLayout=stackLayout;horizontal=1;startSize=26;horizontalStack=0;resizeParent=1;resizeParentMax=0;resizeLast=0;collapsible=1;marginBottom=0;" parent="WIyWlLk6GJQsqaUBKTNV-1" vertex="1"><mxGeometry x="80" y="40" width="160" height="294" as="geometry"/></mxCell><object label="- Health: double" Strength="int" Agility="int" Stamina="int" Spirit="int" Intelligence="int" id="CvsPyBY_gTNWmde9INsc-15"><mxCell style="text;strokeColor=none;fillColor=none;align=left;verticalAlign=top;spacingLeft=4;spacingRight=4;overflow=hidden;rotatable=0;points=[[0,0.5],[1,0.5]];portConstraint=eastwest;" parent="CvsPyBY_gTNWmde9INsc-14" vertex="1"><mxGeometry y="26" width="160" height="26" as="geometry"/></mxCell></object><mxCell id="CvsPyBY_gTNWmde9INsc-25" value="- Mana: double" style="text;strokeColor=none;fillColor=none;align=left;verticalAlign=top;spacingLeft=4;spacingRight=4;overflow=hidden;rotatable=0;points=[[0,0.5],[1,0.5]];portConstraint=eastwest;" parent="CvsPyBY_gTNWmde9INsc-14" vertex="1"><mxGeometry y="52" width="160" height="26" as="geometry"/></mxCell><mxCell id="CvsPyBY_gTNWmde9INsc-24" value="- Strength: double" style="text;strokeColor=none;fillColor=none;align=left;verticalAlign=top;spacingLeft=4;spacingRight=4;overflow=hidden;rotatable=0;points=[[0,0.5],[1,0.5]];portConstraint=eastwest;" parent="CvsPyBY_gTNWmde9INsc-14" vertex="1"><mxGeometry y="78" width="160" height="26" as="geometry"/></mxCell><mxCell id="CvsPyBY_gTNWmde9INsc-23" value="- Agility: double" style="text;strokeColor=none;fillColor=none;align=left;verticalAlign=top;spacingLeft=4;spacingRight=4;overflow=hidden;rotatable=0;points=[[0,0.5],[1,0.5]];portConstraint=eastwest;" parent="CvsPyBY_gTNWmde9INsc-14" vertex="1"><mxGeometry y="104" width="160" height="26" as="geometry"/></mxCell><mxCell id="CvsPyBY_gTNWmde9INsc-22" value="- Spirit: double" style="text;strokeColor=none;fillColor=none;align=left;verticalAlign=top;spacingLeft=4;spacingRight=4;overflow=hidden;rotatable=0;points=[[0,0.5],[1,0.5]];portConstraint=eastwest;" parent="CvsPyBY_gTNWmde9INsc-14" vertex="1"><mxGeometry y="130" width="160" height="26" as="geometry"/></mxCell><mxCell id="CvsPyBY_gTNWmde9INsc-21" value="- Intelligence: double" style="text;strokeColor=none;fillColor=none;align=left;verticalAlign=top;spacingLeft=4;spacingRight=4;overflow=hidden;rotatable=0;points=[[0,0.5],[1,0.5]];portConstraint=eastwest;" parent="CvsPyBY_gTNWmde9INsc-14" vertex="1"><mxGeometry y="156" width="160" height="26" as="geometry"/></mxCell><mxCell id="CvsPyBY_gTNWmde9INsc-20" value="- Hit: double" style="text;strokeColor=none;fillColor=none;align=left;verticalAlign=top;spacingLeft=4;spacingRight=4;overflow=hidden;rotatable=0;points=[[0,0.5],[1,0.5]];portConstraint=eastwest;" parent="CvsPyBY_gTNWmde9INsc-14" vertex="1"><mxGeometry y="182" width="160" height="26" as="geometry"/></mxCell><mxCell id="CvsPyBY_gTNWmde9INsc-26" value="- Spells: List" style="text;strokeColor=none;fillColor=none;align=left;verticalAlign=top;spacingLeft=4;spacingRight=4;overflow=hidden;rotatable=0;points=[[0,0.5],[1,0.5]];portConstraint=eastwest;" parent="CvsPyBY_gTNWmde9INsc-14" vertex="1"><mxGeometry y="208" width="160" height="26" as="geometry"/></mxCell><mxCell id="CvsPyBY_gTNWmde9INsc-16" value="" style="line;strokeWidth=1;fillColor=none;align=left;verticalAlign=middle;spacingTop=-1;spacingLeft=3;spacingRight=3;rotatable=0;labelPosition=right;points=[];portConstraint=eastwest;strokeColor=inherit;" parent="CvsPyBY_gTNWmde9INsc-14" vertex="1"><mxGeometry y="234" width="160" height="8" as="geometry"/></mxCell><mxCell id="CvsPyBY_gTNWmde9INsc-17" value="+ Getters(): double/List" style="text;strokeColor=none;fillColor=none;align=left;verticalAlign=top;spacingLeft=4;spacingRight=4;overflow=hidden;rotatable=0;points=[[0,0.5],[1,0.5]];portConstraint=eastwest;" parent="CvsPyBY_gTNWmde9INsc-14" vertex="1"><mxGeometry y="242" width="160" height="26" as="geometry"/></mxCell><mxCell id="CvsPyBY_gTNWmde9INsc-18" value="+ Setters(double/List): void" style="text;strokeColor=none;fillColor=none;align=left;verticalAlign=top;spacingLeft=4;spacingRight=4;overflow=hidden;rotatable=0;points=[[0,0.5],[1,0.5]];portConstraint=eastwest;" parent="CvsPyBY_gTNWmde9INsc-14" vertex="1"><mxGeometry y="268" width="160" height="26" as="geometry"/></mxCell><mxCell id="CvsPyBY_gTNWmde9INsc-27" value="Weapon" style="swimlane;fontStyle=1;align=center;verticalAlign=top;childLayout=stackLayout;horizontal=1;startSize=26;horizontalStack=0;resizeParent=1;resizeParentMax=0;resizeLast=0;collapsible=1;marginBottom=0;" parent="WIyWlLk6GJQsqaUBKTNV-1" vertex="1"><mxGeometry x="480" y="40" width="160" height="320" as="geometry"/></mxCell><object label="- Type: Enumerator" Strength="int" Agility="int" Stamina="int" Spirit="int" Intelligence="int" id="CvsPyBY_gTNWmde9INsc-28"><mxCell style="text;strokeColor=none;fillColor=none;align=left;verticalAlign=top;spacingLeft=4;spacingRight=4;overflow=hidden;rotatable=0;points=[[0,0.5],[1,0.5]];portConstraint=eastwest;" parent="CvsPyBY_gTNWmde9INsc-27" vertex="1"><mxGeometry y="26" width="160" height="26" as="geometry"/></mxCell></object><mxCell id="CvsPyBY_gTNWmde9INsc-29" value="- dmgPerSwing: double" style="text;strokeColor=none;fillColor=none;align=left;verticalAlign=top;spacingLeft=4;spacingRight=4;overflow=hidden;rotatable=0;points=[[0,0.5],[1,0.5]];portConstraint=eastwest;" parent="CvsPyBY_gTNWmde9INsc-27" vertex="1"><mxGeometry y="52" width="160" height="26" as="geometry"/></mxCell><mxCell id="CvsPyBY_gTNWmde9INsc-39" value="- Health: double" style="text;strokeColor=none;fillColor=none;align=left;verticalAlign=top;spacingLeft=4;spacingRight=4;overflow=hidden;rotatable=0;points=[[0,0.5],[1,0.5]];portConstraint=eastwest;" parent="CvsPyBY_gTNWmde9INsc-27" vertex="1"><mxGeometry y="78" width="160" height="26" as="geometry"/></mxCell><mxCell id="CvsPyBY_gTNWmde9INsc-40" value="- Mana: double" style="text;strokeColor=none;fillColor=none;align=left;verticalAlign=top;spacingLeft=4;spacingRight=4;overflow=hidden;rotatable=0;points=[[0,0.5],[1,0.5]];portConstraint=eastwest;" parent="CvsPyBY_gTNWmde9INsc-27" vertex="1"><mxGeometry y="104" width="160" height="26" as="geometry"/></mxCell><mxCell id="CvsPyBY_gTNWmde9INsc-30" value="- Strength: double" style="text;strokeColor=none;fillColor=none;align=left;verticalAlign=top;spacingLeft=4;spacingRight=4;overflow=hidden;rotatable=0;points=[[0,0.5],[1,0.5]];portConstraint=eastwest;" parent="CvsPyBY_gTNWmde9INsc-27" vertex="1"><mxGeometry y="130" width="160" height="26" as="geometry"/></mxCell><mxCell id="CvsPyBY_gTNWmde9INsc-31" value="- Agility: double" style="text;strokeColor=none;fillColor=none;align=left;verticalAlign=top;spacingLeft=4;spacingRight=4;overflow=hidden;rotatable=0;points=[[0,0.5],[1,0.5]];portConstraint=eastwest;" parent="CvsPyBY_gTNWmde9INsc-27" vertex="1"><mxGeometry y="156" width="160" height="26" as="geometry"/></mxCell><mxCell id="CvsPyBY_gTNWmde9INsc-32" value="- Spirit: double" style="text;strokeColor=none;fillColor=none;align=left;verticalAlign=top;spacingLeft=4;spacingRight=4;overflow=hidden;rotatable=0;points=[[0,0.5],[1,0.5]];portConstraint=eastwest;" parent="CvsPyBY_gTNWmde9INsc-27" vertex="1"><mxGeometry y="182" width="160" height="26" as="geometry"/></mxCell><mxCell id="CvsPyBY_gTNWmde9INsc-33" value="- Intelligence: double" style="text;strokeColor=none;fillColor=none;align=left;verticalAlign=top;spacingLeft=4;spacingRight=4;overflow=hidden;rotatable=0;points=[[0,0.5],[1,0.5]];portConstraint=eastwest;" parent="CvsPyBY_gTNWmde9INsc-27" vertex="1"><mxGeometry y="208" width="160" height="26" as="geometry"/></mxCell><mxCell id="CvsPyBY_gTNWmde9INsc-34" value="- Hit: double" style="text;strokeColor=none;fillColor=none;align=left;verticalAlign=top;spacingLeft=4;spacingRight=4;overflow=hidden;rotatable=0;points=[[0,0.5],[1,0.5]];portConstraint=eastwest;" parent="CvsPyBY_gTNWmde9INsc-27" vertex="1"><mxGeometry y="234" width="160" height="26" as="geometry"/></mxCell><mxCell id="CvsPyBY_gTNWmde9INsc-36" value="" style="line;strokeWidth=1;fillColor=none;align=left;verticalAlign=middle;spacingTop=-1;spacingLeft=3;spacingRight=3;rotatable=0;labelPosition=right;points=[];portConstraint=eastwest;strokeColor=inherit;" parent="CvsPyBY_gTNWmde9INsc-27" vertex="1"><mxGeometry y="260" width="160" height="8" as="geometry"/></mxCell><mxCell id="CvsPyBY_gTNWmde9INsc-37" value="+ Getters(): double/List" style="text;strokeColor=none;fillColor=none;align=left;verticalAlign=top;spacingLeft=4;spacingRight=4;overflow=hidden;rotatable=0;points=[[0,0.5],[1,0.5]];portConstraint=eastwest;" parent="CvsPyBY_gTNWmde9INsc-27" vertex="1"><mxGeometry y="268" width="160" height="26" as="geometry"/></mxCell><mxCell id="CvsPyBY_gTNWmde9INsc-38" value="+ Setters(double/List): void" style="text;strokeColor=none;fillColor=none;align=left;verticalAlign=top;spacingLeft=4;spacingRight=4;overflow=hidden;rotatable=0;points=[[0,0.5],[1,0.5]];portConstraint=eastwest;" parent="CvsPyBY_gTNWmde9INsc-27" vertex="1"><mxGeometry y="294" width="160" height="26" as="geometry"/></mxCell><mxCell id="CvsPyBY_gTNWmde9INsc-41" value="Use" style="endArrow=open;endSize=12;dashed=1;html=1;rounded=0;exitX=1.013;exitY=0.041;exitDx=0;exitDy=0;exitPerimeter=0;entryX=-0.031;entryY=0.041;entryDx=0;entryDy=0;entryPerimeter=0;" parent="WIyWlLk6GJQsqaUBKTNV-1" source="CvsPyBY_gTNWmde9INsc-14" target="CvsPyBY_gTNWmde9INsc-27" edge="1"><mxGeometry width="160" relative="1" as="geometry"><mxPoint x="290" y="440" as="sourcePoint"/><mxPoint x="450" y="440" as="targetPoint"/></mxGeometry></mxCell></root></mxGraphModel></diagram><diagram id="jiM9Y5E0p4Vc9h0s1Fcs" name="Viewer"><mxGraphModel dx="903" dy="812" grid="1" gridSize="10" guides="1" tooltips="1" connect="1" arrows="1" fold="1" page="1" pageScale="1" pageWidth="850" pageHeight="1100" math="0" shadow="0"><root><mxCell id="0"/><mxCell id="1" parent="0"/><mxCell id="xq5f-G7putXhNV8RG8q5-4" value="" style="edgeStyle=orthogonalEdgeStyle;rounded=0;orthogonalLoop=1;jettySize=auto;html=1;" edge="1" parent="1" source="xq5f-G7putXhNV8RG8q5-1" target="xq5f-G7putXhNV8RG8q5-2"><mxGeometry relative="1" as="geometry"/></mxCell><mxCell id="xq5f-G7putXhNV8RG8q5-1" value="GameFrame" style="rounded=1;whiteSpace=wrap;html=1;" vertex="1" parent="1"><mxGeometry x="10" y="10" width="120" height="60" as="geometry"/></mxCell><mxCell id="xq5f-G7putXhNV8RG8q5-6" style="edgeStyle=orthogonalEdgeStyle;rounded=0;orthogonalLoop=1;jettySize=auto;html=1;exitX=1;exitY=0.5;exitDx=0;exitDy=0;entryX=0.5;entryY=0;entryDx=0;entryDy=0;" edge="1" parent="1" source="xq5f-G7putXhNV8RG8q5-2" target="xq5f-G7putXhNV8RG8q5-5"><mxGeometry relative="1" as="geometry"/></mxCell><mxCell id="xq5f-G7putXhNV8RG8q5-2" value="Panels" style="rounded=1;whiteSpace=wrap;html=1;" vertex="1" parent="1"><mxGeometry x="10" y="110" width="120" height="60" as="geometry"/></mxCell><mxCell id="xq5f-G7putXhNV8RG8q5-5" value="Main Menu" style="rounded=1;whiteSpace=wrap;html=1;" vertex="1" parent="1"><mxGeometry x="210" y="200" width="120" height="60" as="geometry"/></mxCell></root></mxGraphModel></diagram></mxfile>